<?xml version="1.0" encoding="UTF-8"?>
<svg width="24px" height="24px" viewBox="0 0 24 24" version="1.1" xmlns="http://www.w3.org/2000/svg" xmlns:xlink="http://www.w3.org/1999/xlink">
    <!-- Generator: Sketch 55.1 (78136) - https://sketchapp.com -->
    <title>Appel</title>
    <desc>Created with Sketch.</desc>
    <g id="Appel" stroke="none" stroke-width="1" fill="none" fill-rule="evenodd">
        <g id="baseline-call-24px">
            <polygon id="Path" points="0 0 24 0 24 24 0 24"></polygon>
            <path d="M19.01,16.38 C17.78,16.38 16.59,16.18 15.48,15.82 C15.13,15.7 14.74,15.79 14.47,16.06 L12.9,18.03 C10.07,16.68 7.42,14.13 6.01,11.2 L7.96,9.54 C8.23,9.26 8.31,8.87 8.2,8.52 C7.83,7.41 7.64,6.22 7.64,4.99 C7.64,4.45 7.19,4 6.65,4 L3.19,4 C2.65,4 2,4.24 2,4.99 C2,14.28 9.73,22 19.01,22 C19.72,22 20,21.37 20,20.82 L20,17.37 C20,16.83 19.55,16.38 19.01,16.38 Z" id="Path" fill-opacity="0.2" fill="#000000" fill-rule="nonzero"></path>
            <path d="M20.01,15.38 C18.78,15.38 17.59,15.18 16.48,14.82 C16.13,14.7 15.74,14.79 15.47,15.06 L13.9,17.03 C11.07,15.68 8.42,13.13 7.01,10.2 L8.96,8.54 C9.23,8.26 9.31,7.87 9.2,7.52 C8.83,6.41 8.64,5.22 8.64,3.99 C8.64,3.45 8.19,3 7.65,3 L4.19,3 C3.65,3 3,3.24 3,3.99 C3,13.28 10.73,21 20.01,21 C20.72,21 21,20.37 21,19.82 L21,16.37 C21,15.83 20.55,15.38 20.01,15.38 Z" id="Path" fill="#4D009A" fill-rule="nonzero"></path>
        </g>
    </g>
</svg>
