<?xml version="1.0" encoding="UTF-8"?>
<svg viewBox="0 0 30 30" version="1.1" xmlns="http://www.w3.org/2000/svg" xmlns:xlink="http://www.w3.org/1999/xlink">
    <g id="arbre" fill="#4D009A">
        <g id="Group-65" transform="translate(2.000000, 0.000000)" alignment-baseline="baseline">
            <path d="M13.93775,13.7970316 C14.9386875,11.0761895 18.3686875,12.6642947 17.31525,8.94334737 C14.51025,8.87418947 13.34775,10.0381895 13.93775,13.7970316" id="Fill-1" class="arbre_zero"></path>
            <path d="M10.099875,12.3978632 C9.1789375,14.9166 11.4183125,14.3519684 11.5608125,15.2690211 C12.048,13.8084947 12.156125,12.1963895 10.099875,12.3978632" id="Fill-3" class="arbre_zero"></path>
            <path d="M16.8396875,12.8330211 C12.92375,13.8489158 15.3221875,16.4983895 14.033125,17.8884947 C16.7,17.0614421 17.86125,15.1629158 16.8396875,12.8330211" id="Fill-5" class="arbre_zero"></path>
            <path d="M9.4248125,7.1346 C7.7248125,11.0229158 11.1860625,10.2527053 11.4073125,12.0520737 C12.465125,9.33786316 11.7879375,7.39796842 9.4248125,7.1346" id="Fill-7" class="arbre_zero"></path>
            <path d="M7.72775,9.23750526 C6.529625,11.1208737 7.3293125,12.0565579 9.3815,12.9950842 C8.7955625,11.8282421 10.0215,10.8442421 7.72775,9.23750526" id="Fill-9" class="arbre_zero"></path>
            <path d="M24.9515625,15.8256 C24.6771875,18.3364421 23.300625,18.6159158 20.8078125,18.0288632 C22.15875,17.3950737 21.76875,15.6667579 24.9515625,15.8256" id="Fill-11" class="arbre_one"></path>
            <path d="M11.2686875,5.21583158 C13.2886875,4.18541053 12.574,1.1592 10.615875,0.261726316 C9.869625,0.793831579 8.5024375,3.8532 11.2686875,5.21583158" id="Fill-13" class="arbre_tree"></path>
            <path d="M2.67709375,21.2550947 C3.83146875,22.2908842 5.64553125,20.9364632 5.76959375,19.3802526 C5.24396875,19.0414105 2.91459375,19.0281474 2.67709375,21.2550947" id="Fill-15" class="arbre_one"></path>
            <path d="M5.4148125,7.06645263 C5.2185625,8.3454 6.96825,9.01487368 8.0979375,8.40255789 C8.095125,7.88024211 7.057625,6.2334 5.4148125,7.06645263" id="Fill-17" class="arbre_zero"></path>
            <path d="M15.0428125,6.58784211 C13.931875,6.40815789 13.341875,7.95805263 13.8684375,8.96352632 C14.3228125,8.96352632 15.759375,8.05057895 15.0428125,6.58784211" id="Fill-19" class="arbre_zero"></path>
            <path d="M13.2749375,6.31578947e-05 C12.2343125,0.432063158 12.530875,2.06564211 13.499625,2.64606316 C13.887125,2.40637895 14.6411875,0.869747368 13.2749375,6.31578947e-05" id="Fill-21" class="arbre_one"></path>
            <path d="M23.502875,9.39757895 C21.86475,8.68957895 20.807875,10.0907368 19.9113125,11.4246316 C20.634125,11.6346316 23.584125,11.3106316 23.502875,9.39757895" id="Fill-23" class="arbre_zero"></path>
            <path d="M18.248375,11.1902211 C17.08775,12.9014842 18.248375,13.5318 17.9468125,15.0785368 C19.1949375,14.2338 20.40525,12.3516947 18.248375,11.1902211" id="Fill-25" class="arbre_zero"></path>
            <path d="M15.8295625,17.8742211 C15.29425,18.1795895 14.7439375,18.4660105 14.2420625,18.8269579 C14.023,18.9845368 13.8139375,19.1566421 13.623625,19.3489579 C13.509875,19.4642211 13.1164375,19.8087474 13.1151875,19.9770632 C13.141125,16.7013789 13.6389375,10.8103263 12.643625,8.16716842 C12.54425,10.5687474 12.3276875,14.9658 11.87675,17.2773789 C11.3770625,15.8449579 9.12175,14.7216947 7.9205,12.7467474 C7.748,13.5346421 9.74675,15.5954842 10.8520625,17.2799053 C11.433625,18.1656947 11.50175,19.2119053 11.43925,20.2555895 C11.3283125,22.0979053 11.2739375,26.7665368 11.31925,29.7479053 L13.792375,29.7479053 C13.5958125,27.9851684 13.4520625,24.8945368 13.34925,23.7134842 C13.25925,22.6739053 13.58175,21.7303263 14.1305,20.8420105 C14.911125,19.5791684 16.84675,18.1470632 17.16425,17.8211684 C17.8101875,17.1576947 18.4758125,16.1212737 18.6770625,15.2133789 C17.9539375,16.3142211 16.96675,17.2249579 15.8295625,17.8742211" id="Fill-27"></path>
            <path d="M5.32540625,17.2611474 C6.13728125,19.7805158 9.43790625,18.3698842 10.7382188,19.4783053 C9.81728125,17.0599895 8.13978125,15.6995684 5.32540625,17.2611474" id="Fill-29" class="arbre_tree"></path>
            <path d="M19.7913438,3.18293684 C16.9922813,2.98556842 16.2191563,3.73777895 15.9944688,6.22462105 C17.4297813,4.80704211 19.6647813,6.58651579 19.7913438,3.18293684" id="Fill-31" class="arbre_zero"></path>
            <path d="M8.863,15.9437368 C7.4695625,13.3065789 4.489875,12.3263684 2.8383125,14.3278421 C4.7139375,17.6325789 6.7989375,15.0001579 8.863,15.9437368" id="Fill-33" class="arbre_zero"></path>
            <path d="M12.67525,7.66689474 C11.7099375,5.62436842 12.4568125,3.34815789 14.405875,3.22942105 C15.5574375,5.86910526 13.0330625,5.97142105 12.67525,7.66689474" id="Fill-35" class="arbre_zero"></path>
            <path d="M17.5122813,19.6166211 C19.0910313,20.3220947 20.2160313,22.3112526 22.5494687,20.1588316 C21.5504063,18.6405158 19.8975938,18.2483053 17.5122813,19.6166211" id="Fill-37" class="arbre_two"></path>
            <path d="M24.6485313,11.9507053 C21.9794688,11.5089158 20.9813438,12.0520737 19.7913437,14.7031263 C23.2225937,15.3877579 24.8107188,13.9682842 24.6485313,11.9507053" id="Fill-39" class="arbre_tree"></path>
            <path d="M6.0010625,10.8614842 C6.7004375,9.90748421 6.1845,7.42758947 2.4091875,7.52548421 C2.7754375,8.49306316 2.7185625,11.1693789 6.0010625,10.8614842" id="Fill-41" class="arbre_zero"></path>
            <path d="M10.6379063,20.5911158 C8.47603125,19.8202737 6.16321875,19.1274316 5.42571875,22.5076421 C9.19103125,23.2570105 8.72790625,21.6180632 10.6379063,20.5911158" id="Fill-43" class="arbre_two"></path>
            <path d="M5.60678125,12.7001053 C4.63209375,11.1385263 2.68365625,10.2824211 0.46521875,11.0384211 C2.41334375,13.9597895 3.60428125,11.844 5.60678125,12.7001053" id="Fill-45" class="arbre_zero"></path>
            <path d="M4.76053125,17.9994316 C3.86896875,18.1314316 2.39553125,16.9806947 1.03521875,18.2062737 C2.61678125,19.8013263 3.76459375,19.1214316 4.76053125,17.9994316" id="Fill-47" class="arbre_one"></path>
            <path d="M6.2775625,2.28644211 C7.0081875,1.33812632 9.1188125,1.68233684 9.0385,3.87581053 C8.129125,3.17475789 6.9719375,3.84138947 6.2775625,2.28644211" id="Fill-49" class="arbre_one"></path>
            <path d="M18.1555938,9.9138 C20.0621563,9.29453684 22.6640313,9.24085263 21.8937188,5.99958947 C18.5096563,7.15727368 18.8574688,8.88401053 18.1555938,9.9138" id="Fill-51" class="arbre_zero"></path>
            <path d="M15.5387188,4.18241053 C16.6293438,2.92462105 17.7509062,1.45177895 15.4518438,0.645568421 C14.0905938,2.33062105 15.5684062,2.77872632 15.5387188,4.18241053" id="Fill-53" class="arbre_two"></path>
            <path d="M21.3532187,15.8453368 C20.0379062,14.8199684 18.3188437,16.6900737 18.2347813,18.5118632 C19.5254062,17.1599684 21.5029062,17.9210211 21.3532187,15.8453368" id="Fill-55" class="arbre_zero"></path>
            <path d="M0.06875,14.1402632 C-0.451875,15.7836316 2.09875,17.1828947 3.9653125,16.8478421 C2.1025,15.7848947 2.0996875,13.4963684 0.06875,14.1402632" id="Fill-57" class="arbre_one"></path>
            <path d="M19.245375,6.31398947 C16.8456875,5.52072632 16.6931875,6.89314737 15.7481875,8.28483158 C17.5138125,8.16704211 18.7813125,8.18441053 19.245375,6.31398947" id="Fill-59" class="arbre_tree"></path>
            <path d="M14.4785312,21.7775053 C16.0969688,22.2682421 17.2063437,24.3647684 19.4175938,22.3986632 C17.4413438,20.1802421 15.8047812,20.6514 14.4785312,21.7775053" id="Fill-61" class="arbre_two"></path>
            <path d="M5.2295625,4.82510526 C7.1895625,3.33078947 9.56425,3.933 10.88675,6.57868421 C8.65675,5.66826316 7.629875,7.67605263 5.2295625,4.82510526" id="Fill-63" class="arbre_zero"></path>
        </g>
    </g>
</svg>
