<?xml version="1.0" encoding="UTF-8"?>
<svg width="24px" height="24px" viewBox="0 0 24 24" version="1.1" xmlns="http://www.w3.org/2000/svg" xmlns:xlink="http://www.w3.org/1999/xlink">
    <!-- Generator: Sketch 55.1 (78136) - https://sketchapp.com -->
    <title>Artboard_ right</title>
    <desc>Created with Sketch.</desc>
    <g id="Artboard_-right" stroke="none" stroke-width="1" fill="none" fill-rule="evenodd">
        <g id="Group" transform="translate(12.000000, 12.000000) rotate(-180.000000) translate(-12.000000, -12.000000) ">
            <polygon id="Path" transform="translate(12.000000, 12.000000) rotate(-180.000000) translate(-12.000000, -12.000000) " points="0 0 24 0 24 24 0 24"></polygon>
            <path d="M9.705,5.705 C9.31551495,6.09448505 9.31517069,6.72585884 9.70423077,7.11576839 L13.58,11 L9.70423077,14.8842316 C9.31517069,15.2741412 9.31551495,15.905515 9.705,16.295 C10.0943607,16.6843607 10.7256393,16.6843607 11.115,16.295 L15.7028932,11.7071068 C16.0934175,11.3165825 16.0934175,10.6834175 15.7028932,10.2928932 L11.115,5.705 C10.7256393,5.31563925 10.0943607,5.31563925 9.705,5.705 Z" id="Path" fill="#000000" fill-rule="nonzero" opacity="0.2" transform="translate(12.705000, 11.000000) rotate(-180.000000) translate(-12.705000, -11.000000) "></path>
            <path d="M8.705,6.705 C8.31551495,7.09448505 8.31517069,7.72585884 8.70423077,8.11576839 L12.58,12 L8.70423077,15.8842316 C8.31517069,16.2741412 8.31551495,16.905515 8.705,17.295 C9.09436075,17.6843607 9.72563925,17.6843607 10.115,17.295 L14.7028932,12.7071068 C15.0934175,12.3165825 15.0934175,11.6834175 14.7028932,11.2928932 L10.115,6.705 C9.72563925,6.31563925 9.09436075,6.31563925 8.705,6.705 Z" id="Path" fill="#4D009A" fill-rule="nonzero" transform="translate(11.705000, 12.000000) rotate(-180.000000) translate(-11.705000, -12.000000) "></path>
        </g>
    </g>
</svg>
