<?xml version="1.0" encoding="UTF-8"?>
<svg viewBox="0 0 24 24" version="1.1" xmlns="http://www.w3.org/2000/svg" xmlns:xlink="http://www.w3.org/1999/xlink">
    <!-- Generator: Sketch 55.1 (78136) - https://sketchapp.com -->
    <title>Artboard_ left</title>
    <desc>Created with Sketch.</desc>
    <g id="Artboard_-left" stroke="none" stroke-width="1" fill="none" fill-rule="evenodd">
        <polygon id="Path" transform="translate(12.000000, 12.000000) rotate(-180.000000) translate(-12.000000, -12.000000) " points="0 0 24 0 24 24 0 24"></polygon>
        <path d="M7.705,7.705 C7.31551495,8.09448505 7.31517069,8.72585884 7.70423077,9.11576839 L11.58,13 L7.70423077,16.8842316 C7.31517069,17.2741412 7.31551495,17.905515 7.705,18.295 C8.09436075,18.6843607 8.72563925,18.6843607 9.115,18.295 L13.7028932,13.7071068 C14.0934175,13.3165825 14.0934175,12.6834175 13.7028932,12.2928932 L9.115,7.705 C8.72563925,7.31563925 8.09436075,7.31563925 7.705,7.705 Z" id="Path" fill="#000000" fill-rule="nonzero" opacity="0.2" transform="translate(10.705000, 13.000000) rotate(-180.000000) translate(-10.705000, -13.000000) "></path>
        <path d="M8.705,6.705 C8.31551495,7.09448505 8.31517069,7.72585884 8.70423077,8.11576839 L12.58,12 L8.70423077,15.8842316 C8.31517069,16.2741412 8.31551495,16.905515 8.705,17.295 C9.09436075,17.6843607 9.72563925,17.6843607 10.115,17.295 L14.7028932,12.7071068 C15.0934175,12.3165825 15.0934175,11.6834175 14.7028932,11.2928932 L10.115,6.705 C9.72563925,6.31563925 9.09436075,6.31563925 8.705,6.705 Z" id="Path" fill="#4D009A" fill-rule="nonzero" transform="translate(11.705000, 12.000000) rotate(-180.000000) translate(-11.705000, -12.000000) "></path>
    </g>
</svg>
