<svg id="venti1" class="buttonInactif" fill="#4D009A" xmlns="http://www.w3.org/2000/svg" viewBox="0 0 168.09 154.16">
  <path d="M68.44,175.43H60.65V152.71L49.24,172.24a7.9,7.9,0,0,1-6.76,3.84,7.82,7.82,0,0,1-6.71-3.84L24.3,152.71v22.72H16.51V152.71a7.79,7.79,0,0,1,7.79-7.79,8.06,8.06,0,0,1,6.93,4.17l11.25,19.2,11.3-19.2a8,8,0,0,1,6.87-4.17,7.75,7.75,0,0,1,7.79,7.79Z" transform="translate(-15.39 -21.92)"/><path d="M127.24,175.43h-9.9l-4.22-5.73H88l-4.21,5.73h-9.9l19.9-26.67a8.8,8.8,0,0,1,6.82-3.84,8.69,8.69,0,0,1,6.76,3.84Zm-19.8-13.52-6.93-9.52-6.92,9.52Z" transform="translate(-15.39 -21.92)"/><path d="M183.49,175.43H170.67l-11.31-8.93a8.15,8.15,0,0,1-2.76-3.67,8,8,0,0,1-2.7,3.67l-11.31,8.93H129.77l19.31-15-19-14.82h12.82L154,154.28a8.5,8.5,0,0,1,2.65,3.62,8.23,8.23,0,0,1,2.71-3.62l11.08-8.71h12.83l-19.05,14.82Z" transform="translate(-15.39 -21.92)"/>
  <path d="M110.3,49V43h5.35a6.25,6.25,0,0,0,6.24-6.24V28.16a6.25,6.25,0,0,0-6.24-6.24H81.48a6.25,6.25,0,0,0-6.24,6.24v8.55A6.25,6.25,0,0,0,81.48,43h5.35V49a83.15,83.15,0,0,0-71.44,82.33c0,1.15,0,2.34.08,3.63a2,2,0,0,0,2,1.91H40.34a2,2,0,0,0,2-2V129.4a2,2,0,0,0-2-2H29a69,69,0,0,1,3.32-17.69l10.5,4.35a2.07,2.07,0,0,0,.77.15A2,2,0,0,0,45.45,113l2.1-5.08a2,2,0,0,0,0-1.53,2,2,0,0,0-1.08-1.08L35.9,100.92a69.66,69.66,0,0,1,9.92-15l8,8a2,2,0,0,0,1.42.59,2,2,0,0,0,1.41-.59L60.58,90a2,2,0,0,0,.51-.86,2,2,0,0,0-.34-2.38l-8-8A70.22,70.22,0,0,1,67.42,69l4.35,10.51a2,2,0,0,0,1.85,1.24,1.9,1.9,0,0,0,.77-.16l5.07-2.1a2,2,0,0,0,1.08-2.61L76.17,65.36a69.54,69.54,0,0,1,17.65-3.52V73.11a2,2,0,0,0,2,2h5.49a2,2,0,0,0,2-2V61.84a69.06,69.06,0,0,1,17.59,3.5L116.65,75.6a2,2,0,0,0,1.08,2.61l5.07,2.1a1.9,1.9,0,0,0,.77.16,2,2,0,0,0,1.85-1.24L129.65,69a70.31,70.31,0,0,1,14.68,9.84l-8,8a2,2,0,0,0-.59,1.42,2,2,0,0,0,.59,1.41l3.88,3.89a2,2,0,0,0,1.41.58,2,2,0,0,0,1-.25,2.09,2.09,0,0,0,.86-.5l7.65-7.66A69.66,69.66,0,0,1,161,100.46l-9.84,4.08a2,2,0,0,0-1.08,2.61l2.1,5.07a2.07,2.07,0,0,0,1.09,1.09,2,2,0,0,0,.76.15,2.07,2.07,0,0,0,.77-.15l9.85-4.08a69.28,69.28,0,0,1,3.47,18.35H156.78a2,2,0,0,0-2,2l0,5.35a2,2,0,0,0,.58,1.42,2,2,0,0,0,1.42.59h0l22.91,0a2,2,0,0,0,2-1.91c.06-1.29.09-2.48.09-3.63A83.15,83.15,0,0,0,110.3,49Z" transform="translate(-15.39 -21.92)"/></svg>
