<?xml version="1.0" encoding="UTF-8"?>
<svg width="24px" height="24px" viewBox="0 0 24 24" version="1.1" xmlns="http://www.w3.org/2000/svg" xmlns:xlink="http://www.w3.org/1999/xlink">
    <!-- Generator: Sketch 55.2 (78181) - https://sketchapp.com -->
    <title>close</title>
    <desc>Created with Sketch.</desc>
    <g id="close" stroke="none" stroke-width="1" fill="none" fill-rule="evenodd">
        <g id="baseline-clear-24px">
            <polygon id="Path" points="0 0 24 0 24 24 0 24"></polygon>
            <path d="M17.295,6.705 C16.9056393,6.31563925 16.2743607,6.31563925 15.885,6.705 L11,11.59 L6.115,6.705 C5.72563925,6.31563925 5.09436075,6.31563925 4.705,6.705 C4.31563925,7.09436075 4.31563925,7.72563925 4.705,8.115 L9.59,13 L4.705,17.885 C4.31563925,18.2743607 4.31563925,18.9056393 4.705,19.295 C5.09436075,19.6843607 5.72563925,19.6843607 6.115,19.295 L11,14.41 L15.885,19.295 C16.2743607,19.6843607 16.9056393,19.6843607 17.295,19.295 C17.6843607,18.9056393 17.6843607,18.2743607 17.295,17.885 L12.41,13 L17.295,8.115 C17.6843607,7.72563925 17.6843607,7.09436075 17.295,6.705 Z" id="Path" fill="#000000" fill-rule="nonzero" opacity="0.2"></path>
            <path d="M18.295,5.705 C17.9056393,5.31563925 17.2743607,5.31563925 16.885,5.705 L12,10.59 L7.115,5.705 C6.72563925,5.31563925 6.09436075,5.31563925 5.705,5.705 C5.31563925,6.09436075 5.31563925,6.72563925 5.705,7.115 L10.59,12 L5.705,16.885 C5.31563925,17.2743607 5.31563925,17.9056393 5.705,18.295 C6.09436075,18.6843607 6.72563925,18.6843607 7.115,18.295 L12,13.41 L16.885,18.295 C17.2743607,18.6843607 17.9056393,18.6843607 18.295,18.295 C18.6843607,17.9056393 18.6843607,17.2743607 18.295,16.885 L13.41,12 L18.295,7.115 C18.6843607,6.72563925 18.6843607,6.09436075 18.295,5.705 Z" id="Path" fill="#4D009A" fill-rule="nonzero"></path>
        </g>
    </g>
</svg>
