<?xml version="1.0" encoding="UTF-8"?>
<svg width="24px" height="24px" viewBox="0 0 24 24" version="1.1" xmlns="http://www.w3.org/2000/svg" xmlns:xlink="http://www.w3.org/1999/xlink">
    <!-- Generator: Sketch 55.1 (78136) - https://sketchapp.com -->
    <title>Config_inactif</title>
    <desc>Created with Sketch.</desc>
    <defs>
        <filter x="-140.9%" y="-140.9%" width="381.8%" height="381.8%" filterUnits="objectBoundingBox" id="filter-1">
            <feOffset dx="0" dy="4" in="SourceAlpha" result="shadowOffsetOuter1"></feOffset>
            <feGaussianBlur stdDeviation="6" in="shadowOffsetOuter1" result="shadowBlurOuter1"></feGaussianBlur>
            <feColorMatrix values="0 0 0 0 0   0 0 0 0 0   0 0 0 0 0  0 0 0 0.5 0" type="matrix" in="shadowBlurOuter1" result="shadowMatrixOuter1"></feColorMatrix>
            <feMerge>
                <feMergeNode in="shadowMatrixOuter1"></feMergeNode>
                <feMergeNode in="SourceGraphic"></feMergeNode>
            </feMerge>
        </filter>
    </defs>
    <g id="Config_inactif" stroke="none" stroke-width="1" fill="none" fill-rule="evenodd">
        <g id="Group" transform="translate(5.000000, 5.000000)">
            <g id="bottom" filter="url(#filter-1)"></g>
        </g>
        <g id="Group" transform="translate(0.000000, 1.000000)">
            <g id="Group-10" transform="translate(0.000000, 2.000000)" opacity="0.2">
                <path d="M3.075,4.5 L4.475,3.1 L7.1,5.075 L7.96834074,4.57063569 L9,4.275 L9.4625,1.025 L11.475,1.025 L11.925,4.25 L13.0442389,4.60151528 L13.825,5.05 L16.45,3.075 L17.85,4.475 L15.9,7.1 C16.1414073,7.52327638 16.3070339,7.84160644 16.3968797,8.05499017 C16.4867254,8.2683739 16.5877656,8.58337717 16.7,9 L19.925,9.475 L19.925,11.475 L16.7,11.925 L16.3603927,12.968295 L15.9,13.825 L17.875,16.45 L16.475,17.8506361 L13.85,15.9 L12.9498356,16.3727743 L11.95,16.7 L11.475,19.925 L9.475,19.925 L9.025,16.7 L8.00874888,16.3727743 L7.125,15.9 L4.5,17.875 L3.075,16.45 L5.075,13.85 L4.5813697,12.9177702 L4.275,11.95 L1.025,11.475 L1.025,9.475 L4.25,9.025 L4.5813697,8.00101461 L5.05,7.125 L3.075,4.5 Z" id="Path-2" fill="#000000"></path>
                <path d="M20.925,12.325 L20.925,8.625 L17.475,8.125 C17.3710321,7.80855208 17.2457452,7.49951117 17.1,7.2 L19.2,4.4 L16.55,1.75 L13.75,3.85 L12.825,3.475 L12.325,0 L8.625,0 L8.125,3.475 L7.2,3.85 L4.4,1.75 L1.75,4.4 L3.85,7.2 C3.70418453,7.49947988 3.57889572,7.80852562 3.475,8.125 L0,8.625 L0,12.325 L3.475,12.825 C3.57889572,13.1414744 3.70418453,13.4505201 3.85,13.75 L1.75,16.55 L4.4,19.2 L7.2,17.1 L8.125,17.475 L8.625,20.95 L12.325,20.95 L12.825,17.475 L13.75,17.1 L16.55,19.2 L19.2,16.55 L17.1,13.75 C17.2457452,13.4504888 17.3710321,13.1414479 17.475,12.825 L20.925,12.325 Z M17.875,16.45 L16.475,17.85 L13.85,15.9 L13.575,16.05 C13.1555275,16.2827964 12.7110248,16.467307 12.25,16.6 L11.95,16.7 L11.475,19.925 L9.475,19.925 L9.025,16.7 L8.725,16.6 C8.26397518,16.467307 7.81947246,16.2827964 7.4,16.05 L7.125,15.9 L4.5,17.875 L3.1,16.475 L5.075,13.85 L4.925,13.575 C4.69220357,13.1555275 4.50769301,12.7110248 4.375,12.25 L4.275,11.95 L1.025,11.475 L1.025,9.475 L4.25,9.025 L4.35,8.725 C4.48269301,8.26397518 4.66720357,7.81947246 4.9,7.4 L5.05,7.125 L3.075,4.5 L4.475,3.1 L7.1,5.075 L7.375,4.925 C7.79447246,4.69220357 8.23897518,4.50769301 8.7,4.375 L9,4.275 L9.475,1.025 L11.475,1.025 L11.925,4.25 L12.225,4.35 C12.6860248,4.48269301 13.1305275,4.66720357 13.55,4.9 L13.825,5.05 L16.45,3.075 L17.85,4.475 L15.9,7.1 L16.05,7.375 C16.2827964,7.79447246 16.467307,8.23897518 16.6,8.7 L16.7,9 L19.925,9.475 L19.925,11.475 L16.7,11.925 L16.6,12.225 C16.467307,12.6860248 16.2827964,13.1305275 16.05,13.55 L15.9,13.825 L17.875,16.45 Z" id="Shape" fill="#000000" fill-rule="nonzero"></path>
                <circle id="oval" stroke="#000000" cx="10.475" cy="10.475" r="3"></circle>
            </g>
            <g id="Group-10" transform="translate(2.000000, 0.000000)">
                <path d="M3.075,4.5 L4.475,3.1 L7.1,5.075 L7.96834074,4.57063569 L9,4.275 L9.4625,1.025 L11.475,1.025 L11.925,4.25 L13.0442389,4.60151528 L13.825,5.05 L16.45,3.075 L17.85,4.475 L15.9,7.1 C16.1414073,7.52327638 16.3070339,7.84160644 16.3968797,8.05499017 C16.4867254,8.2683739 16.5877656,8.58337717 16.7,9 L19.925,9.475 L19.925,11.475 L16.7,11.925 L16.3603927,12.968295 L15.9,13.825 L17.875,16.45 L16.475,17.8506361 L13.85,15.9 L12.9498356,16.3727743 L11.95,16.7 L11.475,19.925 L9.475,19.925 L9.025,16.7 L8.00874888,16.3727743 L7.125,15.9 L4.5,17.875 L3.075,16.45 L5.075,13.85 L4.5813697,12.9177702 L4.275,11.95 L1.025,11.475 L1.025,9.475 L4.25,9.025 L4.5813697,8.00101461 L5.05,7.125 L3.075,4.5 Z" id="Path-2" fill="#4D009A"></path>
                <path d="M20.925,12.325 L20.925,8.625 L17.475,8.125 C17.3710321,7.80855208 17.2457452,7.49951117 17.1,7.2 L19.2,4.4 L16.55,1.75 L13.75,3.85 L12.825,3.475 L12.325,0 L8.625,0 L8.125,3.475 L7.2,3.85 L4.4,1.75 L1.75,4.4 L3.85,7.2 C3.70418453,7.49947988 3.57889572,7.80852562 3.475,8.125 L0,8.625 L0,12.325 L3.475,12.825 C3.57889572,13.1414744 3.70418453,13.4505201 3.85,13.75 L1.75,16.55 L4.4,19.2 L7.2,17.1 L8.125,17.475 L8.625,20.95 L12.325,20.95 L12.825,17.475 L13.75,17.1 L16.55,19.2 L19.2,16.55 L17.1,13.75 C17.2457452,13.4504888 17.3710321,13.1414479 17.475,12.825 L20.925,12.325 Z M17.875,16.45 L16.475,17.85 L13.85,15.9 L13.575,16.05 C13.1555275,16.2827964 12.7110248,16.467307 12.25,16.6 L11.95,16.7 L11.475,19.925 L9.475,19.925 L9.025,16.7 L8.725,16.6 C8.26397518,16.467307 7.81947246,16.2827964 7.4,16.05 L7.125,15.9 L4.5,17.875 L3.1,16.475 L5.075,13.85 L4.925,13.575 C4.69220357,13.1555275 4.50769301,12.7110248 4.375,12.25 L4.275,11.95 L1.025,11.475 L1.025,9.475 L4.25,9.025 L4.35,8.725 C4.48269301,8.26397518 4.66720357,7.81947246 4.9,7.4 L5.05,7.125 L3.075,4.5 L4.475,3.1 L7.1,5.075 L7.375,4.925 C7.79447246,4.69220357 8.23897518,4.50769301 8.7,4.375 L9,4.275 L9.475,1.025 L11.475,1.025 L11.925,4.25 L12.225,4.35 C12.6860248,4.48269301 13.1305275,4.66720357 13.55,4.9 L13.825,5.05 L16.45,3.075 L17.85,4.475 L15.9,7.1 L16.05,7.375 C16.2827964,7.79447246 16.467307,8.23897518 16.6,8.7 L16.7,9 L19.925,9.475 L19.925,11.475 L16.7,11.925 L16.6,12.225 C16.467307,12.6860248 16.2827964,13.1305275 16.05,13.55 L15.9,13.825 L17.875,16.45 Z" id="Shape" fill="#82B1FF" fill-rule="nonzero"></path>
                <circle id="oval" stroke="#82B1FF" cx="10.475" cy="10.475" r="3"></circle>
            </g>
        </g>
    </g>
</svg>
