<svg id="Calque_1" data-name="Calque 1" xmlns="http://www.w3.org/2000/svg" viewBox="0 0 124.33 125.36"><path d="M148.16,70.48h-8.9V53.09a16,16,0,0,0-15.95-15.94H54.21A16,16,0,0,0,38.27,53.09v47.85a16,16,0,0,0,15.94,15.94H69.38v12.83a14.56,14.56,0,0,0,14.54,14.5h36.55L138.65,161a5.32,5.32,0,0,0,3.72,1.53,5.14,5.14,0,0,0,2-.39,4.78,4.78,0,0,0,2.93-4.48V144.18a15.68,15.68,0,0,0,15.31-14.24V85A14.51,14.51,0,0,0,148.16,70.48ZM76.38,85a7.56,7.56,0,0,1,7.54-7.54h64.22A7.49,7.49,0,0,1,155.6,85v44.5a8.67,8.67,0,0,1-8.69,7.67h-.29c-4.68,0-6.34,3.12-6.34,5.79v10l-15-13.85a6.68,6.68,0,0,0-4.62-1.89H83.91a7.54,7.54,0,0,1-7.53-7.51ZM45.27,53.09a9,9,0,0,1,8.94-8.94h69.1a9,9,0,0,1,8.95,8.94V70.48H83.91A14.58,14.58,0,0,0,69.38,85v24.87H54.21a9,9,0,0,1-8.94-8.94Z" transform="translate(-38.27 -37.15)"/></svg>