<svg id="Calque_1" data-name="Calque 1" xmlns="http://www.w3.org/2000/svg" viewBox="0 0 110.51 136"><path id="Icon_metro-bin" data-name="Icon metro-bin" d="M56.29,74.5a3.22,3.22,0,0,0-3.21,3.22V159.5a8.52,8.52,0,0,0,8.49,8.5h76.48a8.53,8.53,0,0,0,8.53-8.5V77.72a3.22,3.22,0,0,0-3.22-3.22ZM75.35,151H73.29a3.22,3.22,0,0,1-3.22-3.22v-53a3.22,3.22,0,0,1,3.22-3.22h2.06a3.22,3.22,0,0,1,3.22,3.22v53A3.22,3.22,0,0,1,75.35,151Zm17,0h-2a3.22,3.22,0,0,1-3.22-3.22v-53A3.22,3.22,0,0,1,90.3,91.5h2.06a3.22,3.22,0,0,1,3.22,3.22v53A3.22,3.22,0,0,1,92.35,151Zm17,0h-2.06a3.22,3.22,0,0,1-3.21-3.22v-53a3.22,3.22,0,0,1,3.21-3.22h2.07a3.22,3.22,0,0,1,3.22,3.22v53A3.22,3.22,0,0,1,109.35,151Zm17,0h-2.07a3.22,3.22,0,0,1-3.22-3.22v-53a3.22,3.22,0,0,1,3.22-3.22h2.08a3.22,3.22,0,0,1,3.21,3.22v53A3.22,3.22,0,0,1,126.35,151ZM148.7,49H124.28a3.22,3.22,0,0,1-3.22-3.22v-7.4A6.4,6.4,0,0,0,114.68,32H85a6.4,6.4,0,0,0-6.38,6.38v7.4A3.22,3.22,0,0,1,75.35,49H51a6.4,6.4,0,0,0-6.38,6.38v7.41A3.22,3.22,0,0,0,47.79,66H151.86a3.22,3.22,0,0,0,3.22-3.21V55.38A6.4,6.4,0,0,0,148.7,49Zm-39.34,0H90.3a3.22,3.22,0,0,1-3.22-3.22v-2a3.22,3.22,0,0,1,3.22-3.21h19.06a3.22,3.22,0,0,1,3.22,3.21v2A3.22,3.22,0,0,1,109.36,49Z" transform="translate(-44.57 -32)"/></svg>