<svg id="Calque_1" data-name="Calque 1" xmlns="http://www.w3.org/2000/svg" viewBox="0 0 95.44 121.55"><path d="M138.6,71.2l-.07,0c-1.75-1.08-3.58-3.2-3.62-4.91a31.82,31.82,0,0,0-63.36.08A5.54,5.54,0,0,1,69,70.8a32,32,0,0,0-7.66,44.42c4.26,6,17.5,12.26,18,12.51,2.52,1.35,5,1.35,6.78,0A5,5,0,0,0,88,122.65c-.5-2.29-2.47-4-5.41-4.64l-.85-.2A22,22,0,0,1,65.59,96.6a21.63,21.63,0,0,1,5.78-14.78,20.25,20.25,0,0,1,5.42-4.32,9.57,9.57,0,0,0,4.84-8.38,20.76,20.76,0,0,1,1.08-6.85,22,22,0,0,1,41.73,0,20.74,20.74,0,0,1,1.07,6.89,9,9,0,0,0,4.81,8.23,15.89,15.89,0,0,1,5.52,4.38,21.9,21.9,0,0,1-16,36.66h-.25a20.94,20.94,0,0,0-20.89,20.82v13.25c.11,2.81,1.28,5,3.19,6a4.51,4.51,0,0,0,2,.5,4.15,4.15,0,0,0,2.29-.69c1.63-1.07,2.46-3.19,2.29-5.78V139a10.9,10.9,0,0,1,10.93-10.85A31.74,31.74,0,0,0,138.6,71.2Z" transform="translate(-55.56 -37.45)"/></svg>