<?xml version="1.0" encoding="UTF-8"?>
<svg width="24px" height="24px" viewBox="0 0 24 24" version="1.1" xmlns="http://www.w3.org/2000/svg" xmlns:xlink="http://www.w3.org/1999/xlink">
    <!-- Generator: Sketch 55.1 (78136) - https://sketchapp.com -->
    <title>Delete</title>
    <desc>Created with Sketch.</desc>
    <g id="Delete" stroke="none" stroke-width="1" fill="none" fill-rule="evenodd">
        <g id="baseline-delete-24px">
            <polygon id="Path" points="0 0 24 0 24 24 0 24"></polygon>
            <path d="M5,20 C5,21.1 5.9,22 7,22 L15,22 C16.1,22 17,21.1 17,20 L17,8 L5,8 L5,20 Z M18,5 L14.5,5 L13.5,4 L8.5,4 L7.5,5 L4,5 L4,7 L18,7 L18,5 Z" id="Shape" fill-opacity="0.2" fill="#000000" fill-rule="nonzero"></path>
            <path d="M6,19 C6,20.1 6.9,21 8,21 L16,21 C17.1,21 18,20.1 18,19 L18,7 L6,7 L6,19 Z M19,4 L15.5,4 L14.5,3 L9.5,3 L8.5,4 L5,4 L5,6 L19,6 L19,4 Z" id="Shape" fill="#4D009A" fill-rule="nonzero"></path>
        </g>
    </g>
</svg>
