<svg id="Calque_1" data-name="Calque 1" xmlns="http://www.w3.org/2000/svg" viewBox="0 0 90.41 90.41"><path id="Icon_awesome-download" data-name="Icon awesome-download" d="M96.73,58.19h14.13a4.23,4.23,0,0,1,4.24,4.21V92.1h15.48a3.53,3.53,0,0,1,3.53,3.53,3.58,3.58,0,0,1-1,2.49L106.21,125a3.41,3.41,0,0,1-4.82,0L74.5,98.12a3.53,3.53,0,0,1,2.49-6h15.5V62.43a4.23,4.23,0,0,1,4.21-4.24ZM149,124.59v19.78a4.23,4.23,0,0,1-4.21,4.24h-82a4.23,4.23,0,0,1-4.24-4.22v-19.8a4.22,4.22,0,0,1,4.21-4.24H86.65a5,5,0,0,1,3.55,1.47L97.38,129a9,9,0,0,0,12.79,0l0,0,7-7a5.6,5.6,0,0,1,3.94-1.63h23.6a4.23,4.23,0,0,1,4.24,4.21Zm-21.89,15.54a3.53,3.53,0,0,0-4.36-3.43,3.49,3.49,0,0,0-2.61,2.6,3.53,3.53,0,1,0,7,.83Zm11.3,0a3.53,3.53,0,0,0-4.36-3.43,3.48,3.48,0,0,0-2.6,2.6,3.53,3.53,0,1,0,7,.83Z" transform="translate(-58.59 -58.19)"/></svg>
