<?xml version="1.0" encoding="UTF-8"?>
<svg viewBox="0 0 30 30" version="1.1" xmlns="http://www.w3.org/2000/svg" xmlns:xlink="http://www.w3.org/1999/xlink">
    <!-- Generator: Sketch 59.1 (86144) - https://sketch.com -->
    <title>Artboard</title>
    <desc>Created with Sketch.</desc>
    <defs>
        <polygon id="path-1" points="0.000243478261 0.524821589 27.4564348 0.524821589 27.4564348 27.0344828 0.000243478261 27.0344828"></polygon>
    </defs>
    <g id="Artboard" stroke="none" stroke-width="1" fill="none" fill-rule="evenodd">
        <g id="Group-10" transform="translate(1.000000, 1.000000)">
            <g id="Group-3" transform="translate(0.000000, 0.062885)">
                <mask id="mask-2" fill="white">
                    <use xlink:href="#path-1"></use>
                </mask>
                <g id="Clip-2"></g>
                <path d="M27.4566783,23.7223472 L27.4566783,2.70303688 C27.4566783,1.5000024 26.4462435,0.524410195 25.2002435,0.524410195 L2.25667826,0.524410195 C1.01006957,0.524410195 0.000243478261,1.5000024 0.000243478261,2.70303688 L0.000243478261,24.8560324 C0.000243478261,26.0596546 1.01006957,27.0346591 2.25667826,27.0346591 L25.2002435,27.0346591 C26.4462435,27.0346591 27.4566783,26.0596546 27.4566783,24.8560324 L2.25667826,24.8560324 L2.25667826,2.70303688 L25.2002435,2.70303688 L25.2002435,21.5437205 C25.2002435,22.746755 26.2100696,23.7223472 27.4566783,23.7223472" id="Fill-1" fill="#4D009A" mask="url(#mask-2)"></path>
            </g>
            <path d="M3.63494783,22.1058615 C3.63494783,22.9245361 4.32216522,23.5874687 5.16946957,23.5874687 C5.93946957,23.5874687 6.54877391,23.0303232 6.65955652,22.3174357 L7.95912174,22.3174357 C8.06929565,23.0303232 8.6792087,23.5874687 9.4486,23.5874687 C10.2179913,23.5874687 10.8279043,23.0303232 10.938687,22.3174357 L12.2388609,22.3174357 C12.3484261,23.0303232 12.9583391,23.5874687 13.7283391,23.5874687 C14.4977304,23.5874687 15.1076435,23.0303232 15.2178174,22.3174357 L16.5179913,22.3174357 C16.6281652,23.0303232 17.2380783,23.5874687 18.0074696,23.5874687 C18.7774696,23.5874687 19.3873826,23.0303232 19.4975565,22.3174357 L20.796513,22.3174357 C20.9072957,23.0303232 21.5172087,23.5874687 22.2872087,23.5874687 C23.1339043,23.5874687 23.820513,22.9245361 23.820513,22.1058615 C23.820513,21.2877745 23.1339043,20.624842 22.2872087,20.624842 C21.5172087,20.624842 20.9072957,21.1813997 20.796513,21.894875 L19.4975565,21.894875 C19.3873826,21.1813997 18.7774696,20.624842 18.0074696,20.624842 C17.2380783,20.624842 16.6281652,21.1813997 16.5179913,21.894875 L15.2178174,21.894875 C15.1076435,21.1813997 14.4977304,20.624842 13.7283391,20.624842 C12.9583391,20.624842 12.3484261,21.1813997 12.2388609,21.894875 L10.938687,21.894875 C10.8279043,21.1813997 10.2179913,20.624842 9.4486,20.624842 C8.6792087,20.624842 8.06929565,21.1813997 7.95912174,21.894875 L6.65955652,21.894875 C6.54877391,21.1813997 5.93946957,20.624842 5.16946957,20.624842 C4.32216522,20.624842 3.63494783,21.2877745 3.63494783,22.1058615" id="Fill-4" fill="#4D009A"></path>
            <path d="M7.30909565,19.4554831 C8.07909565,19.4554831 8.6890087,18.899513 8.79857391,18.1854501 L10.0987478,18.1854501 C10.2095304,18.899513 10.8188348,19.4554831 11.5882261,19.4554831 C12.3582261,19.4554831 12.9681391,18.899513 13.0789217,18.1854501 L14.3778783,18.1854501 C14.4880522,18.899513 15.0979652,19.4554831 15.8679652,19.4554831 C16.6373565,19.4554831 17.2472696,18.899513 17.3574435,18.1854501 L18.6576174,18.1854501 C18.7677913,18.899513 19.3777043,19.4554831 20.1470957,19.4554831 C20.9937913,19.4554831 21.6810087,18.7925505 21.6810087,17.9738759 C21.6810087,17.1563766 20.9937913,16.4934441 20.1470957,16.4934441 C19.3777043,16.4934441 18.7677913,17.0494141 18.6576174,17.7628894 L17.3574435,17.7628894 C17.2472696,17.0494141 16.6373565,16.4934441 15.8679652,16.4934441 C15.0979652,16.4934441 14.4880522,17.0494141 14.3778783,17.7628894 L13.0789217,17.7628894 C12.9681391,17.0494141 12.3582261,16.4934441 11.5882261,16.4934441 C10.8188348,16.4934441 10.2095304,17.0494141 10.0987478,17.7628894 L8.79857391,17.7628894 C8.6890087,17.0494141 8.07909565,16.4934441 7.30909565,16.4934441 C6.46118261,16.4934441 5.77457391,17.1563766 5.77457391,17.9738759 C5.77457391,18.7925505 6.46118261,19.4554831 7.30909565,19.4554831" id="Fill-6" fill="#4D009A"></path>
            <path d="M22.2869652,12.3611058 C21.5169652,12.3611058 20.9070522,12.9176636 20.7968783,13.6305511 L19.497313,13.6305511 C19.3871391,12.9176636 18.7772261,12.3611058 18.0078348,12.3611058 C17.2378348,12.3611058 16.6279217,12.9176636 16.5177478,13.6305511 L15.2181826,13.6305511 C15.1074,12.9176636 14.497487,12.3611058 13.7280957,12.3611058 C12.9587043,12.3611058 12.3487913,12.9176636 12.2386174,13.6305511 L10.9384435,13.6305511 C10.8282696,12.9176636 10.2183565,12.3611058 9.44835652,12.3611058 C8.67957391,12.3611058 8.06966087,12.9176636 7.95887826,13.6305511 L6.65931304,13.6305511 C6.54913913,12.9176636 5.93983478,12.3611058 5.16922609,12.3611058 C4.32192174,12.3611058 3.63470435,13.0246261 3.63470435,13.842713 C3.63470435,14.6602123 4.32192174,15.3237325 5.16922609,15.3237325 C5.93922609,15.3237325 6.54913913,14.7677625 6.65931304,14.0542873 L7.95887826,14.0542873 C8.06966087,14.7677625 8.67957391,15.3237325 9.44835652,15.3237325 C10.2183565,15.3237325 10.8282696,14.7677625 10.9384435,14.0542873 L12.2386174,14.0542873 C12.3487913,14.7677625 12.9587043,15.3237325 13.7280957,15.3237325 C14.497487,15.3237325 15.1074,14.7677625 15.2181826,14.0542873 L16.5177478,14.0542873 C16.6279217,14.7677625 17.2384435,15.3237325 18.0078348,15.3237325 C18.7772261,15.3237325 19.3871391,14.7677625 19.497313,14.0542873 L20.7968783,14.0542873 C20.9070522,14.7677625 21.5169652,15.3237325 22.2869652,15.3237325 C23.1342696,15.3237325 23.8208783,14.6602123 23.8208783,13.842713 C23.8208783,13.0246261 23.1342696,12.3611058 22.2869652,12.3611058" id="Fill-8" fill="#4D009A"></path>
        </g>
    </g>
</svg>
