<svg id="Calque_1" data-name="Calque 1" xmlns="http://www.w3.org/2000/svg" viewBox="0 0 99.8 109.48"><path d="M147.65,112.89c-.13-.09-12.82-9.69-12.82-40.84a35,35,0,0,0-34.94-34.6h-.33A35.15,35.15,0,0,0,65,72.1c0,31.06-12.65,40.68-12.74,40.74A5,5,0,0,0,55,122h89.8a5,5,0,0,0,2.85-9.11Z" transform="translate(-49.99 -37.45)"/><path d="M111,132.63a5,5,0,0,0-6.83,1.82,5,5,0,0,1-6.81,1.81,5.06,5.06,0,0,1-1.81-1.81,5,5,0,0,0-6.83-1.82,5,5,0,0,0-1.82,6.84,15,15,0,0,0,12.94,7.46,15.31,15.31,0,0,0,3.86-.5,14.91,14.91,0,0,0,9.12-7A5,5,0,0,0,111,132.63Z" transform="translate(-49.99 -37.45)"/></svg>