<svg id="Calque_1" data-name="Calque 1" xmlns="http://www.w3.org/2000/svg" viewBox="0 0 137.65 137.65"><g id="Icon_feather-settings" data-name="Icon feather-settings"><path d="M100.65,122.22a21.68,21.68,0,1,1,21.68-21.68A21.7,21.7,0,0,1,100.65,122.22Zm0-35.35a13.68,13.68,0,1,0,13.68,13.67A13.69,13.69,0,0,0,100.65,86.87Z" transform="translate(-31.11 -31)"/><path d="M101.14,168.65l-1,0a15.84,15.84,0,0,1-14.8-14.8V153a5.65,5.65,0,0,0-3.74-5.14l-.24-.09A5.7,5.7,0,0,0,75,149l-.25.26A15.81,15.81,0,0,1,51.4,127.94c.34-.37.69-.73,1.05-1.06l.29-.29a5.8,5.8,0,0,0-4.16-9.79h-.82a15.81,15.81,0,1,1,0-31.57h.39a5.64,5.64,0,0,0,5.14-3.74l.1-.24a5.69,5.69,0,0,0-1.15-6.31L52,74.69A15.81,15.81,0,0,1,73.26,51.3c.37.33.72.69,1.06,1.05l.29.29a5.68,5.68,0,0,0,6.28,1.11l.77-.34H82a5.72,5.72,0,0,0,2.83-4.91v-.85A15.81,15.81,0,0,1,99.68,31a15.83,15.83,0,0,1,16.76,16.62V48a5.79,5.79,0,0,0,5.8,5.71h.05a5.75,5.75,0,0,0,4-1.63l.23-.23A15.81,15.81,0,0,1,150,73.09c-.36.39-.73.77-1.13,1.13l-.28.28a5.69,5.69,0,0,0-1.11,6.28l.35.77v.38a5.72,5.72,0,0,0,4.91,2.83h1.23a15.81,15.81,0,0,1,0,31.55h-.78a5.7,5.7,0,0,0-5.21,3.47l-.2.45a5.69,5.69,0,0,0,1.31,5.89l.26.26A15.81,15.81,0,0,1,128,149.79c-.37-.34-.73-.69-1.07-1.06l-.28-.29a5.8,5.8,0,0,0-9.79,4.16v1.22a15.8,15.8,0,0,1-15.75,14.83Zm-7.81-15.22a7.81,7.81,0,0,0,15.57,0v-.86a13.8,13.8,0,0,1,23.4-9.83l.54.55c.18.19.36.38.56.56a7.81,7.81,0,0,0,10.47-11.59l-.51-.5a13.66,13.66,0,0,1-2.77-15.16l1.58-3.58.51.21a13.73,13.73,0,0,1,10.46-4.9h.4a7.83,7.83,0,0,0,7.21-7.3,7.83,7.83,0,0,0-7.2-8.27h-.87a13.71,13.71,0,0,1-12.57-8.32l-.32-.75v-.52a13.64,13.64,0,0,1,3.07-14.29l.54-.53c.21-.2.42-.4.6-.61a7.81,7.81,0,0,0-11.62-10.43l-.5.52a13.8,13.8,0,0,1-23.44-9.75v-.79a7.69,7.69,0,0,0,0-1A7.81,7.81,0,0,0,100.17,39a7.8,7.8,0,0,0-7.31,8.27v1.22a13.75,13.75,0,0,1-8.32,12.58l-.76.32h-.52A13.66,13.66,0,0,1,69,58.33l-.52-.53c-.18-.2-.37-.39-.56-.57A7.81,7.81,0,0,0,57.43,68.82l.5.49a14.2,14.2,0,0,1-9.69,23.92h-.85a7.53,7.53,0,0,0-1,0,7.81,7.81,0,1,0,1,15.59h1.22a13.81,13.81,0,0,1,9.83,23.4l-.55.54c-.2.18-.39.37-.57.56a7.81,7.81,0,1,0,11.59,10.46l.5-.5A14.2,14.2,0,0,1,93.33,153Z" transform="translate(-31.11 -31)"/></g></svg>