<svg id="Calque_1" data-name="Calque 1" xmlns="http://www.w3.org/2000/svg" viewBox="0 0 295.36 247.12"><path d="M154.54,172.4a41.13,41.13,0,1,1,41.13-41.13A41.18,41.18,0,0,1,154.54,172.4Zm0-68.47a27.34,27.34,0,1,0,27.34,27.34A27.36,27.36,0,0,0,154.54,103.93Z" transform="translate(-93.64 -90.14)"/><path d="M298.43,254.83a41.13,41.13,0,1,1,41.13-41.13A41.17,41.17,0,0,1,298.43,254.83Zm0-68.47a27.34,27.34,0,1,0,27.34,27.34A27.37,27.37,0,0,0,298.43,186.36Z" transform="translate(-93.64 -90.14)"/><path d="M209,337.26a41.13,41.13,0,1,1,41.13-41.13A41.18,41.18,0,0,1,209,337.26Zm0-68.47a27.34,27.34,0,1,0,27.34,27.34A27.36,27.36,0,0,0,209,268.79Z" transform="translate(-93.64 -90.14)"/><path d="M116.23,131.27a48.37,48.37,0,0,1,2.12-14.15H105.74c-6.48,0-11.74,6.34-11.74,14.15s5.26,14.15,11.74,14.15h12.61A48.37,48.37,0,0,1,116.23,131.27Z" transform="translate(-93.64 -90.14)"/><path d="M377.26,117.12H182.39a48.28,48.28,0,0,1,0,28.3H377.26c6.48,0,11.74-6.34,11.74-14.15S383.74,117.12,377.26,117.12Z" transform="translate(-93.64 -90.14)"/><path d="M258.09,213.7a48.37,48.37,0,0,1,2.13-14.15H105.74c-6.48,0-11.74,6.34-11.74,14.15s5.26,14.15,11.74,14.15H260.22A48.37,48.37,0,0,1,258.09,213.7Z" transform="translate(-93.64 -90.14)"/><path d="M377.26,199.55h-53a48.28,48.28,0,0,1,0,28.3h53c6.48,0,11.74-6.34,11.74-14.15S383.74,199.55,377.26,199.55Z" transform="translate(-93.64 -90.14)"/><path d="M172.8,296.13A48.37,48.37,0,0,1,174.93,282H105.4c-6.5,0-11.76,6.34-11.76,14.15s5.26,14.15,11.76,14.15h69.53A48.37,48.37,0,0,1,172.8,296.13Z" transform="translate(-93.64 -90.14)"/><path d="M377.24,282H239a48.07,48.07,0,0,1,0,28.3h138.2c6.5,0,11.76-6.34,11.76-14.15S383.74,282,377.24,282Z" transform="translate(-93.64 -90.14)"/></svg>