<?xml version="1.0" encoding="UTF-8"?>
<svg width="22px" height="22px" viewBox="0 0 22 22" version="1.1" xmlns="http://www.w3.org/2000/svg" xmlns:xlink="http://www.w3.org/1999/xlink">
    <!-- Generator: Sketch 55.1 (78136) - https://sketchapp.com -->
    <title>Radio_button_inactive</title>
    <desc>Created with Sketch.</desc>
    <g id="Radio_button_inactive" class="activeSelect" stroke="none" stroke-width="1" fill="none" fill-rule="evenodd" opacity="0.2">
        <path class="activeSelect" d="M11,1 C5.5,1 1,5.5 1,11 C1,16.5 5.5,21 11,21 C16.5,21 21,16.5 21,11 C21,5.5 16.5,1 11,1 L11,1 Z M11,19 C6.6,19 3,15.4 3,11 C3,6.6 6.6,3 11,3 C15.4,3 19,6.6 19,11 C19,15.4 15.4,19 11,19 L11,19 Z" id="Shape" fill="#4D009A"></path>
    </g>
    <g id="radio-on" class="desactiveSelect" transform="translate(1.000000, 0.000000)">
        <path class="desactiveSelect" d="M10,6 C7.2,6 5,8.2 5,11 C5,13.8 7.2,16 10,16 C12.8,16 15,13.8 15,11 C15,8.2 12.8,6 10,6 L10,6 Z M10,1 C4.5,1 0,5.5 0,11 C0,16.5 4.5,21 10,21 C15.5,21 20,16.5 20,11 C20,5.5 15.5,1 10,1 L10,1 Z M10,19 C5.6,19 2,15.4 2,11 C2,6.6 5.6,3 10,3 C14.4,3 18,6.6 18,11 C18,15.4 14.4,19 10,19 L10,19 Z" id="Shape" fill="#000000" opacity="0.2"></path>
        <path class="desactiveSelect" d="M11,5 C8.2,5 6,7.2 6,10 C6,12.8 8.2,15 11,15 C13.8,15 16,12.8 16,10 C16,7.2 13.8,5 11,5 L11,5 Z M11,0 C5.5,0 1,4.5 1,10 C1,15.5 5.5,20 11,20 C16.5,20 21,15.5 21,10 C21,4.5 16.5,0 11,0 L11,0 Z M11,18 C6.6,18 3,14.4 3,10 C3,5.6 6.6,2 11,2 C15.4,2 19,5.6 19,10 C19,14.4 15.4,18 11,18 L11,18 Z" id="Shape" fill="#4D009A"></path>
    </g>
</svg>
