<svg id="venti4" class="buttonInactif" fill="#4D009A" xmlns="http://www.w3.org/2000/svg" viewBox="0 0 200 200"><defs><style>.cls-1{fill:#4d009a;}</style></defs><path class="cls-1" d="M3.47,76.09H82.85A29.22,29.22,0,1,0,53.64,46.87a5.31,5.31,0,0,0,10.62,0A18.59,18.59,0,1,1,82.85,65.62H3.47a2.24,2.24,0,0,0-2.24,2.24v6A2.24,2.24,0,0,0,3.47,76.09Z"/><path class="cls-1" d="M121.1,108.14H3.47a2.23,2.23,0,0,0-2.24,2.23v6a2.23,2.23,0,0,0,2.24,2.23H121.1a26.53,26.53,0,1,1-26.43,28.56,5.26,5.26,0,0,0,.09-.95,5.31,5.31,0,0,0-10.6-.45,2.6,2.6,0,0,0,0,.4v.05c0,.09,0,.18,0,.28a37,37,0,1,0,36.95-38.35Z"/><path class="cls-1" d="M59.14,129.28H3.47a2.24,2.24,0,0,0-2.24,2.24v6a2.24,2.24,0,0,0,2.24,2.24H59.14a5.26,5.26,0,1,1-5,6.68v-.22a5.31,5.31,0,0,0-10.6-.45,1.76,1.76,0,0,0,0,.4.09.09,0,0,0,0,.05,5.47,5.47,0,0,0,.16,1.23,15.72,15.72,0,1,0,15.51-18.16Z"/><path class="cls-1" d="M161.85,23.74a36.78,36.78,0,0,0-37,35.94v.21a5.24,5.24,0,1,0,10.47,0v-.08a26.52,26.52,0,1,1,26.5,27.44H3.47a2.23,2.23,0,0,0-2.24,2.23v6a2.24,2.24,0,0,0,2.24,2.24H161.85a37,37,0,1,0,0-74Z"/></svg>
