<svg id="venti3" class="buttonInactif" fill="#4D009A" xmlns="http://www.w3.org/2000/svg" viewBox="0 0 200 200"><defs><style>.cls-1{fill:#4d009a;}</style></defs><path class="cls-1" d="M2.84,86.77H82.23A29.22,29.22,0,1,0,53,57.56a5.32,5.32,0,0,0,10.63,0A18.59,18.59,0,1,1,82.27,76.31H2.84A2.23,2.23,0,0,0,.61,78.54v6A2.23,2.23,0,0,0,2.84,86.77Z"/><path class="cls-1" d="M120.47,97.45H2.84A2.23,2.23,0,0,0,.61,99.69v6a2.23,2.23,0,0,0,2.23,2.24H120.47A26.53,26.53,0,1,1,94,136.47a4.45,4.45,0,0,0,.1-.95,5.31,5.31,0,0,0-10.62-.26,2.35,2.35,0,0,0,0,.26,2.53,2.53,0,0,0,0,.28,37,37,0,1,0,37-38.35Z"/><path class="cls-1" d="M58.52,118.6H2.84a2.23,2.23,0,0,0-2.23,2.23v6a2.23,2.23,0,0,0,2.23,2.23H58.52a5.26,5.26,0,1,1-5.05,6.69c0-.08,0-.15,0-.23a5.31,5.31,0,0,0-10.61-.44,2.61,2.61,0,0,0,0,.4v0a5,5,0,0,0,.16,1.24A15.71,15.71,0,1,0,58.52,118.6Z"/></svg>
