<svg id="venti2" class="buttonInactif" fill="#4D009A" xmlns="http://www.w3.org/2000/svg" viewBox="0 0 200 200"><defs><style>.cls-1{fill:#4d009a;}</style></defs><path class="cls-1" d="M82.24,37.61A29.25,29.25,0,0,0,53,66.82a5.32,5.32,0,0,0,10.63,0A18.59,18.59,0,1,1,82.24,85.57H2.85A2.23,2.23,0,0,0,.62,87.81v6A2.23,2.23,0,0,0,2.85,96H82.24a29.22,29.22,0,0,0,0-58.43Z"/><path class="cls-1" d="M58.53,106.72H2.85A2.23,2.23,0,0,0,.62,109v6a2.23,2.23,0,0,0,2.23,2.23H58.53a5.26,5.26,0,1,1-5.05,6.68,1.55,1.55,0,0,0,0-.22,5.31,5.31,0,0,0-10.6-.44,2.6,2.6,0,0,0,0,.4v0a5,5,0,0,0,.16,1.24,15.71,15.71,0,1,0,15.51-18.16Z"/></svg>
