<svg id="venti5" class="buttonInactif" fill="#4D009A" xmlns="http://www.w3.org/2000/svg" viewBox="0 0 144.67 120.75"><path d="M172,71.4A18.86,18.86,0,0,0,157.3,56.74a19.06,19.06,0,0,0-3.8-.38H119.15V43.78c0-2.29-2.24-4.16-5-4.16H85.84c-2.75,0-5,1.87-5,4.16V56.36H46.5A18.86,18.86,0,0,0,27.66,75.19v66.35a18.86,18.86,0,0,0,9.86,16.56,18.77,18.77,0,0,0,9,2.28h107a19.06,19.06,0,0,0,3.8-.39,18.65,18.65,0,0,0,6.12-2.46,18.1,18.1,0,0,0,6.07-6.07,18.65,18.65,0,0,0,2.46-6.12,19.06,19.06,0,0,0,.39-3.8V75.19A18.88,18.88,0,0,0,172,71.4Zm-123.3,81H46.5a10.32,10.32,0,0,1-1.11-.06,10.85,10.85,0,0,1-9.73-10.78V75.19a10,10,0,0,1,.06-1.1,10.65,10.65,0,0,1,1.8-5,8.53,8.53,0,0,1,.62-.83,10.75,10.75,0,0,1,1.47-1.47c.27-.22.55-.43.83-.63a10.92,10.92,0,0,1,5-1.8c.37,0,.74,0,1.11,0h2.15ZM89.53,48.59a2.72,2.72,0,0,1,2.72-2.73h15.5a2.72,2.72,0,0,1,2.72,2.73v7.77H89.53Zm44.08,103.79H66.39v-88h67.22Zm30.73-10.84a10.86,10.86,0,0,1-10.84,10.84h-2.15v-88h2.15a10.86,10.86,0,0,1,8.36,4,8.53,8.53,0,0,1,.62.83,10.65,10.65,0,0,1,1.8,5,10,10,0,0,1,.06,1.1Z" transform="translate(-27.66 -39.62)"/></svg>
