<svg id="Calque_1" data-name="Calque 1" xmlns="http://www.w3.org/2000/svg" viewBox="0 0 175.13 98.12"><g id="Visualisation_actif" data-name="Visualisation actif"><g id="outline-timeline-24px"><path d="M31.15,148.88a18.79,18.79,0,0,1-.24-37.57h.24a16.64,16.64,0,0,1,2.8.2L66.06,79.88a18,18,0,0,1-.2-2.84,18.79,18.79,0,0,1,37.57,0,15.48,15.48,0,0,1-.2,2.79L120,96.44a18.78,18.78,0,0,1,5.7,0l24.41-24.17a17.24,17.24,0,0,1-.19-2.78,18.78,18.78,0,0,1,18.78-18.72h0A18.81,18.81,0,0,1,187.5,69.54v0a18.77,18.77,0,0,1-18.73,18.54h-.07a16.38,16.38,0,0,1-2.77-.18L141.46,112a16.88,16.88,0,0,1,.19,2.84,18.79,18.79,0,0,1-18.78,18.73h0a18.82,18.82,0,0,1-18.78-18.78,17.54,17.54,0,0,1,.2-2.79L87.51,95.48a18.78,18.78,0,0,1-5.7,0l-32.07,31.7a16.52,16.52,0,0,1,.2,2.72,18.81,18.81,0,0,1-18.54,19Zm.21-30.57H31a11.79,11.79,0,1,0,11.93,11.63v-.1a9.34,9.34,0,0,0-.39-2.78,3.51,3.51,0,0,1,.89-3.5L78.22,89.18a3.54,3.54,0,0,1,3.38-.89,11.52,11.52,0,0,0,6.11,0,3.54,3.54,0,0,1,3.38.89l19.49,19.24a3.52,3.52,0,0,1,.9,3.48,9.64,9.64,0,0,0-.4,2.88,11.82,11.82,0,0,0,11.78,11.83h0a11.79,11.79,0,0,0,11.78-11.78,9.43,9.43,0,0,0-.39-2.93,3.5,3.5,0,0,1,.9-3.48l27.2-26.79a3.52,3.52,0,0,1,3.41-.87,9.56,9.56,0,0,0,2.86.36h0a11.68,11.68,0,1,0,.05-23.35h0a11.78,11.78,0,0,0-11.78,11.78,8.85,8.85,0,0,0,.39,2.83,3.51,3.51,0,0,1-.89,3.5L129.3,102.74a3.54,3.54,0,0,1-3.38.89,11.56,11.56,0,0,0-6.12,0,3.52,3.52,0,0,1-3.37-.89L96.94,83.5A3.5,3.5,0,0,1,96,80a9.32,9.32,0,0,0,.39-2.88,11.79,11.79,0,1,0-23.57,0A10.07,10.07,0,0,0,73.25,80a3.48,3.48,0,0,1-.9,3.48L37.5,117.83a3.48,3.48,0,0,1-3.43.87A9.65,9.65,0,0,0,31.36,118.31Z" transform="translate(-12.37 -50.77)"/></g></g></svg>