<?xml version="1.0" encoding="UTF-8"?>
<svg  class="WeekActif" viewBox="0 0 24 24" version="1.1" xmlns="http://www.w3.org/2000/svg" xmlns:xlink="http://www.w3.org/1999/xlink">
    <!-- Generator: Sketch 55.2 (78181) - https://sketchapp.com -->
    <title>week_actif</title>
    <desc>Created with Sketch.</desc>
    <g id="week_actif" stroke="none" stroke-width="1" fill="none" fill-rule="evenodd">
        <g id="Group">
            <g id="outline-view_week-24px">
                <polygon id="Path" points="0 0 24 0 24 24 0 24"></polygon>
            </g>
            <polygon id="Path" fill="#000000" opacity="0.2" points="3 19 6.25 19 6.25 7 3 7"></polygon>
            <polygon id="Path" fill="#000000" opacity="0.2" points="7.25 19 10.5 19 10.5 7 7.25 7"></polygon>
            <polygon id="Path" fill="#000000" opacity="0.2" points="11.5 19 14.75 19 14.75 7 11.5 7"></polygon>
            <polygon id="Path" fill="#000000" opacity="0.2" points="15.75 19 19 19 19 7 15.75 7"></polygon>
            <polygon id="Path" fill="#4D009A" points="4 18 7.25 18 7.25 6 4 6"></polygon>
            <polygon id="Path" fill="#4D009A" points="8.25 18 11.5 18 11.5 6 8.25 6"></polygon>
            <polygon id="Path" fill="#4D009A" points="12.5 18 15.75 18 15.75 6 12.5 6"></polygon>
            <polygon id="Path" fill="#4D009A" points="16.75 18 20 18 20 6 16.75 6"></polygon>
        </g>
    </g>
</svg>
