<?xml version="1.0" encoding="UTF-8"?>
<svg viewBox="0 0 24 24" version="1.1" xmlns="http://www.w3.org/2000/svg" xmlns:xlink="http://www.w3.org/1999/xlink">
    <!-- Generator: Sketch 55.1 (78136) - https://sketchapp.com -->
    <title>Widget_inactif</title>
    <desc>Created with Sketch.</desc>
    <g id="Widget_inactif" stroke="none" stroke-width="1" fill="none" fill-rule="evenodd" stroke-linecap="round" stroke-linejoin="round">
        <g id="Group-2" transform="translate(2.000000, 3.000000)">
            <g id="Group" transform="translate(0.000000, 2.000000)" fill="#000000" opacity="0.2" stroke="#000000">
                <polygon id="Stroke-1" points="12 7 17 7 17 0 12 0"></polygon>
                <polygon id="Stroke-1" points="0 17 5 17 5 10 0 10"></polygon>
                <polygon id="Stroke-1" points="8 17 17 17 17 10 8 10"></polygon>
                <polygon id="Stroke-1" points="0 7 9 7 9 0 0 0"></polygon>
            </g>
            <g id="Group" transform="translate(2.000000, 0.000000)" fill="#4D009A" stroke="#82B1FF">
                <polygon id="Stroke-1" points="12 7 17 7 17 0 12 0"></polygon>
                <polygon id="Stroke-1" points="0 17 5 17 5 10 0 10"></polygon>
                <polygon id="Stroke-1" points="8 17 17 17 17 10 8 10"></polygon>
                <polygon id="Stroke-1" points="0 7 9 7 9 0 0 0"></polygon>
            </g>
        </g>
    </g>
</svg>
